<?xml version="1.0" encoding="utf-8"?>
<!-- Generator: Adobe Illustrator 26.2.1, SVG Export Plug-In . SVG Version: 6.00 Build 0)  -->
<svg version="1.1" id="Calque_1" xmlns="http://www.w3.org/2000/svg" xmlns:xlink="http://www.w3.org/1999/xlink" x="0px" y="0px"
	 viewBox="0 0 300 106.22" style="enable-background:new 0 0 300 106.22;" xml:space="preserve">
<g>
	<g>
		<path d="M299,98.84c-1.75-1.34-3.48-2.7-5.19-4.06c-6.14-4.87-12.23-9.94-18.64-15.5c-5.85-5.08-11.88-10.5-17.89-16.12
			c-2.92-2.73-5.85-5.5-8.71-8.25c-1.84-1.78-3.68-3.56-5.5-5.36l-1.4-1.38l-1.84,0.85c-3.79,1.76-7.6,3.49-11.33,5.14
			c-5.36,2.38-10.67,4.64-15.78,6.74l-3.99,1.62l-1.25,0.5c-0.91,0.36-1.82,0.73-2.74,1.08c-1.19,0.47-2.38,0.93-3.57,1.38
			l-0.47,0.18c-1.09,0.41-2.2,0.83-3.3,1.25c0.97-0.62,1.95-1.23,2.92-1.84l0.59-0.36c0.99-0.62,1.99-1.24,2.99-1.84
			c0.82-0.51,1.64-1,2.45-1.49l1.17-0.71l2.71-1.62l0.9-0.53c4.66-2.75,9.61-5.57,14.69-8.37c4.86-2.68,9.89-5.37,14.95-8
			c0.54-0.28,1.16-0.4,1.79-0.36c0.78,0.05,1.5,0.35,2.04,0.85l0.16,0.15c2.85,2.62,5.8,5.38,8.77,8.2
			c2.88,2.74,5.78,5.54,8.62,8.33c5.85,5.75,11.49,11.48,16.74,17.03c5.66,5.97,11.03,11.9,15.96,17.62
			C296.24,95.57,297.63,97.2,299,98.84z"/>
		<path d="M218.07,52.78c0.45-2.56,0.89-5.12,1.34-7.68c1.22-0.11,2.46-0.12,3.68-0.04c0.42,0.03,0.84,0.07,1.25,0.12
			c0,0,0,0.01,0,0.01c-0.07,0.51-0.13,1.05-0.18,1.58c-0.09,0.95-0.18,1.85-0.39,2.61c-0.14,0.16-0.62,0.44-0.91,0.61
			c-0.24,0.14-0.47,0.28-0.7,0.42c-0.17,0.11-1.07,0.63-1.87,1.09C219.47,51.97,218.73,52.4,218.07,52.78z"/>
	</g>
	<path d="M65.37,70.3c-0.47-0.47-1.09-0.63-1.29-0.37c0,0-0.52,0.54-1.17,1.45l-3.68,5.86c-0.15,0.2-0.82,0.94-0.89,1.49
		c-3.64,3.98-14.81,10.21-12.29,2.28c0.17-0.02,3.21-0.77,5.77-2.52c1.31-0.88,2.31-2.31,2.79-3.61c0.22-0.62,0.38-1.17,0.37-1.7
		c0.03-0.71-0.3-1.44-0.97-2c-0.47-0.41-0.97-0.64-1.51-0.69c-0.66-0.03-2.14,0.87-3.67,2.25c-1.16,1.1-2.34,2.49-3.34,3.92
		c-0.99,1.49-1.67,3.11-1.77,4.61c-0.17,2.33,1.35,4.5,3.47,5.35c2.55,1.04,6.5-1.16,9.55-3.76c-0.04,1.13,0.32,2.65,2.41,3.4
		c0.69,0.27,1.51,0.28,2.31,0c0.45-0.18,0.89-0.47,1.26-0.81c0.36-0.4,0.72-0.86,0.94-1.42c0.34-1.05,0.34-2.41-0.23-4.05
		c-0.98-2.59,0.32-5.31,1.36-6.86l1.22-1.52C66.21,71.31,65.89,70.7,65.37,70.3z M50.7,74.44c0.79-0.75,1.49-1.32,2.09-1.69
		c-0.09,0.25-0.12,0.43-0.21,0.68c-0.5,1.19-1.39,2.54-2.53,3.34c-0.88,0.53-1.71,0.99-2.49,1.33
		C48.45,76.74,49.65,75.46,50.7,74.44z M61.44,79.32c0.46,1.3,0.42,2.37,0.12,3.24c-0.12,0.43-0.42,0.88-0.74,1.16
		c-0.31,0.34-0.7,0.56-1.1,0.67c-0.45,0.18-0.92,0.24-1.16,0.15c-0.12-0.04,0.5-1.6,0.5-1.66c0.08-0.31-0.24-0.92-0.82-1.31
		c-0.03-0.02-0.05-0.02-0.07-0.04c1.4-1.38,2.46-2.74,2.85-3.69c0.08-0.24,0.08-0.42-0.05-0.63l0.92-1.38
		C60.82,78.58,61.35,78.57,61.44,79.32z"/>
	<g>
		<path d="M153.6,68.54c-1.82-1.58-3.93-2.87-6.45-3.81c2.82-1.17,5.34-2.7,7.57-4.63c1.7-1.53,2.93-3.17,3.64-4.93
			c0.88-2.29,0.82-4.63-0.06-7.04c-1-2.58-3.05-4.93-6.1-6.98c-3.52-2.41-8.56-4.16-15.19-5.16c-5.34-0.7-11.2-0.23-17.6,1.35
			c-6.39,1.64-12.49,4.28-18.3,7.98c-4.93,3.11-9.09,6.8-12.49,11.15c-3.46,4.4-5.63,9.27-6.63,14.72c0,0.18,0.06,0.41,0.23,0.7
			c0.18,0.29,0.35,0.53,0.65,0.76c0.23,0.18,0.47,0.29,0.7,0.29c0.18,0,0.29-0.12,0.35-0.29c0.94-5.34,3.11-10.15,6.51-14.43
			c3.34-4.28,7.45-7.92,12.26-10.97c5.75-3.64,11.79-6.28,18.07-7.86c6.28-1.58,12.03-2.05,17.25-1.35
			c6.28,0.94,11.03,2.52,14.2,4.69c2.17,1.47,3.64,3.11,4.34,4.87c0.76,1.94,0.7,3.87-0.06,5.92c-0.65,1.7-1.82,3.23-3.46,4.69
			c-2.76,2.35-5.98,4.16-9.56,5.4c-3.75-0.88-7.45-1.29-11.15-1.29c-1,0-1.94,0-2.82,0.06l6.1-10.27c0.06-0.18,0.06-0.35,0-0.59
			c-0.12-0.23-0.29-0.47-0.53-0.7c-0.23-0.29-0.47-0.47-0.7-0.53c-0.23-0.06-0.41-0.06-0.59,0.06l-4.52,4.87
			c-0.12,0.12-0.12,0.29-0.06,0.53c0.06,0.29,0.23,0.53,0.53,0.82l0.23,0.23l-3.46,5.81c-0.23,0-0.41,0.06-0.65,0.06
			c-1.88,0.29-3.34,0.59-4.34,1c-1,0.41-1.47,0.94-1.35,1.58h0.06c0.06,0.35,0.29,0.7,0.59,1.06c0.59,0.59,1.47,1.06,2.64,1.41
			l-2.35,3.99c-3.75-1.29-7.57-1.58-11.38-0.82c-4.87,1-8.98,2.99-12.26,5.87c-3.34,2.87-4.93,5.98-4.75,9.21
			c0.23,3.46,2.93,6.22,8.04,8.21c4.75,1.7,9.91,2.52,15.49,2.58c5.51,0.06,10.91-0.59,16.25-1.82c6.04-1.47,11.32-3.52,15.78-6.16
			c4.46-2.64,7.33-5.69,8.68-9.03c0.59-1.64,0.7-3.34,0.29-5.1C156.59,72.18,155.42,70.12,153.6,68.54z M122.39,65.9
			c0.18-0.06,0.35-0.18,0.65-0.29c0.88-0.35,2.35-0.65,4.16-0.88c1.82-0.23,3.99-0.35,6.34-0.35c1.99,0,4.11,0.12,6.28,0.35
			c-4.46,1.17-8.8,1.64-12.26,1.58C125.15,66.31,123.33,66.13,122.39,65.9z M155.07,78.1c-1.29,3.23-4.11,6.16-8.45,8.74
			c-4.34,2.64-9.5,4.63-15.55,6.04c-5.22,1.23-10.5,1.88-15.9,1.82c-5.46,0-10.44-0.82-15.08-2.46c-3.52-1.35-5.34-3.05-5.46-5.1
			c-0.12-2.93,1.41-5.75,4.52-8.51c3.23-2.82,7.22-4.69,11.97-5.69c3.05-0.59,6.1-0.53,9.09,0.23l-2.82,4.75
			c-0.12,0.18-0.12,0.35,0,0.65c0.12,0.29,0.29,0.53,0.59,0.76c0.23,0.23,0.47,0.41,0.7,0.47c0.23,0.06,0.41,0.06,0.53-0.12
			l3.4-5.75c3.64,1.41,6.69,4.22,9.27,8.45c0.18,0.29,0.41,0.53,0.7,0.7c0.23,0.18,0.47,0.29,0.7,0.35
			c0.18-0.06,0.29-0.18,0.35-0.35c0.06-0.18-0.06-0.41-0.24-0.7c-2.87-4.75-6.22-7.98-9.97-9.8l2.58-4.4
			c0.82,0.12,1.7,0.18,2.7,0.18c3.7,0.06,7.92-0.47,12.61-1.64c1.17-0.29,2.35-0.65,3.46-1.06c2.64,0.65,4.93,1.64,6.86,2.93
			c1.94,1.35,3.17,3.05,3.7,5.16C155.65,75.23,155.6,76.63,155.07,78.1z"/>
		<path d="M205.4,71.94c0-0.01,0.01-0.01,0.02-0.01c0-0.02-0.01-0.04-0.02-0.05V71.94z"/>
		<path d="M225,88.25c-10.85-0.94-19.3-0.88-25.69-0.18c3.58-6.28,6.57-12.03,6.57-12.08l0.06-0.06l1.29-2.29
			c0.18-0.29-0.12-0.88-0.59-1.35c-0.52-0.46-0.97-0.63-1.21-0.36c0.11,0.79-6.57,10.26-10.52,9.4c-0.35-0.23-0.23-1.53-0.12-1.76
			c0.76-1.82,2.23-4.05,4.11-6.22c0.23-0.29,0-0.88-0.47-1.41c-0.47-0.47-1.06-0.7-1.29-0.41c-1.87,2.22-3.38,4.49-4.15,6.36
			c-1.54,1.6-3.6,3.14-5.41,4.02c-4.4,2.11,0-4.11,0.76-5.04c0.29-0.23,0.41-0.41,0.41-0.41c0.23-0.23,0-0.88-0.47-1.35
			c-0.47-0.53-1.06-0.7-1.29-0.47l-0.18,0.23c-3.17,5.34-7.68,8.21-8.39,7.63c-0.41-0.35-0.06-3.87,4.4-8.98
			c0.18-0.29,0-0.88-0.47-1.41c-0.47-0.47-1.06-0.7-1.29-0.47c-1.21,1.3-2.66,3.15-3.74,5.02c-1.48,0.4-2.97,0.61-4,0.55
			c-0.76-0.06-0.59-1.41-1.11-1.99c-1.17-1.47-3.99-0.53-6.04,0.47l2.17-3.46c0.18-0.29-0.06-0.94-0.59-1.41
			c-0.47-0.47-1.06-0.64-1.23-0.35l-8.39,13.55c-0.18,0.29,0.06,0.94,0.59,1.41c0.47,0.47,1.06,0.65,1.23,0.35
			c0.29-0.53,3.34-5.69,3.46-5.75c0,0,5.22-4.63,6.1-3.58c1.29,1.53,1.76,1.94,3.28,2.05c0.83,0.08,2.38-0.16,3.82-0.49
			c-0.02,0.05-0.05,0.09-0.07,0.14c-3.23,7.16,1.53,8.1,7.33,3.11c0.35,2.52,2.93,2.99,4.99,1.99c1.23-0.59,2.43-1.63,3.52-2.78
			c0.01,1.22,0.65,2.2,1.82,2.84c0.41,0.23,0.82,0.35,1.35,0.41c1.23,0.12,3.11-1.11,4.93-2.7c-1.23,2.23-2.7,4.81-4.22,7.39
			c-6.1,0.94-10.09,2.46-12.49,4.16c-1.58,1.11-2.46,2.29-2.87,3.46c-0.41,1.29-0.18,2.64,0.47,3.81c1.17,2.05,3.52,3.52,6.22,3.58
			c1.99,0,6.39-6.39,10.32-13.02c6.63-0.94,15.78-1.17,28.22-0.12c0.47,0,0.53-0.41,0.24-0.94C226.05,88.78,225.47,88.31,225,88.25z
			 M186.34,101.39c-1.64-0.06-2.93-0.65-3.46-1.47c-0.29-0.59-0.41-1.35-0.12-2.29c0.35-1,1.17-2.11,2.64-3.11
			c1.94-1.41,4.99-2.64,9.39-3.58C191.38,96.58,187.92,101.39,186.34,101.39z"/>
		<path d="M258.09,70.89c-0.41-0.53-1-0.76-1.23-0.53c0,0-0.59,0.47-1.35,1.29l-4.4,5.34c-0.18,0.18-0.93,0.83-1.07,1.37
			c-4.12,3.48-15.99,8.23-12.48,0.69c0.18,0,3.28-0.35,6.04-1.76c1.41-0.7,2.58-1.99,3.23-3.23c0.29-0.59,0.53-1.11,0.59-1.64
			c0.12-0.7-0.12-1.47-0.7-2.11c-0.41-0.47-0.88-0.76-1.41-0.88c-0.65-0.12-2.23,0.59-3.93,1.76c-1.29,0.94-2.64,2.17-3.81,3.46
			c-0.61,0.7-1.14,1.45-1.55,2.22c-1.22,0.28-2.4,0.41-3.26,0.36c-0.76-0.06-0.59-1.41-1.11-1.99c-1.17-1.47-3.99-0.53-6.04,0.47
			l2.17-3.46c0.18-0.29-0.06-0.94-0.59-1.41c-0.47-0.47-1.06-0.64-1.23-0.35l-4.87,7.86c-4.1,3.48-16.02,8.27-12.5,0.71
			c0.18,0,3.28-0.35,6.04-1.76c1.41-0.7,2.58-1.99,3.23-3.23c0.29-0.59,0.53-1.11,0.59-1.64c0.12-0.7-0.12-1.47-0.7-2.11
			c-0.41-0.47-0.88-0.76-1.41-0.88c-0.65-0.12-2.23,0.59-3.93,1.76c-1.29,0.94-2.64,2.17-3.81,3.46c-1.17,1.35-2.05,2.87-2.35,4.34
			c-0.47,2.29,0.76,4.63,2.76,5.75c2.29,1.3,6.23-0.18,9.5-2.22l-0.94,1.52c-0.18,0.29,0.06,0.94,0.59,1.41
			c0.47,0.47,1.06,0.65,1.23,0.35c0.29-0.53,3.34-5.69,3.46-5.75c0,0,5.22-4.63,6.1-3.58c1.29,1.53,1.76,1.94,3.28,2.05
			c0.72,0.07,1.97-0.1,3.22-0.36c-0.09,0.28-0.18,0.56-0.23,0.83c-0.47,2.29,0.76,4.63,2.76,5.75c2.4,1.36,6.59-0.32,9.95-2.51
			c-0.19,1.12-0.02,2.67,1.96,3.68c0.64,0.35,1.47,0.47,2.29,0.29c0.47-0.12,0.94-0.35,1.35-0.65c0.41-0.35,0.82-0.76,1.11-1.29
			c0.47-1,0.65-2.35,0.29-4.05c-0.65-2.7,1-5.22,2.23-6.63l1.41-1.35C258.79,72,258.55,71.36,258.09,70.89z M243.01,73.12
			c0.88-0.65,1.64-1.11,2.29-1.41c-0.12,0.23-0.18,0.41-0.29,0.65c-0.65,1.11-1.7,2.35-2.93,2.99c-0.94,0.41-1.82,0.76-2.64,1
			C240.49,75.11,241.83,73.99,243.01,73.12z M214.03,73.12c0.88-0.65,1.64-1.11,2.29-1.41c-0.12,0.23-0.18,0.41-0.29,0.65
			c-0.65,1.11-1.7,2.35-2.93,2.99c-0.94,0.41-1.82,0.76-2.64,1C211.51,75.11,212.86,73.99,214.03,73.12z M253.04,79.33
			c0.29,1.35,0.12,2.41-0.29,3.23c-0.18,0.41-0.53,0.82-0.88,1.06c-0.35,0.29-0.76,0.47-1.17,0.53c-0.47,0.12-0.94,0.12-1.17,0
			c-0.12-0.06,0.7-1.53,0.7-1.58c0.12-0.29-0.12-0.94-0.65-1.41c-0.02-0.02-0.05-0.03-0.07-0.05c1.57-1.19,2.79-2.41,3.29-3.29
			c0.11-0.23,0.14-0.41,0.03-0.63l1.09-1.25C252.51,78.51,253.04,78.57,253.04,79.33z"/>
	</g>
	<path d="M85.61,43.25c-0.02-0.12-0.02-0.25-0.05-0.37c-0.17-0.94-0.5-1.75-0.87-2.51c-0.38-0.76-0.81-1.47-1.28-2.15
		c-0.23-0.34-0.48-0.68-0.74-1.01c-0.25-0.33-0.55-0.67-0.79-0.95c-0.5-0.59-1.01-1.18-1.5-1.79c-0.25-0.3-0.5-0.61-0.75-0.91
		c-0.25-0.31-0.5-0.62-0.74-0.93c-1.99-2.47-3.97-5.06-6.1-7.63c-1.05-1.29-2.16-2.56-3.31-3.83c-0.29-0.31-0.59-0.62-0.88-0.93
		l-0.44-0.47c-0.15-0.16-0.31-0.3-0.46-0.46c-0.31-0.3-0.62-0.61-0.93-0.91c-0.32-0.3-0.64-0.59-0.97-0.88
		c-0.2-0.18-0.39-0.37-0.6-0.54c-0.21-0.17-0.42-0.34-0.62-0.52c-0.21-0.17-0.41-0.34-0.62-0.51c-0.2-0.17-0.43-0.33-0.64-0.49
		c-0.17-0.12-0.34-0.25-0.5-0.37c0.01,0.01,0,0,0,0c0,0-0.01,0-0.01,0c0,0,0,0,0,0l0,0l0.08-0.05l0.18-0.11l0.18-0.12l0.35-0.24
		c0.93-0.65,1.77-1.41,2.52-2.23c0.75-0.83,1.42-1.73,1.96-2.69c0.15-0.23,0.26-0.49,0.39-0.73c0.13-0.24,0.24-0.5,0.35-0.75
		l0.17-0.38c0.05-0.13,0.1-0.26,0.15-0.39l0.19-0.51c0.08-0.23,0.13-0.46,0.19-0.69c0.12-0.46,0.24-0.91,0.35-1.37l0.16-0.69
		l0.08-0.34l0.04-0.17l0.02-0.09l0.01-0.04c0-0.01,0.02-0.04,0-0.03c-0.47-0.01-0.93-0.02-1.4-0.02l-0.7-0.01
		c-0.23-0.01-0.48,0-0.72,0.01c-0.38,0.01-0.76,0.02-1.14,0.02C66,3.46,65.75,3.47,65.5,3.47c-0.5,0.02-0.99,0.04-1.49,0.07
		c-1.99,0.11-3.97,0.31-5.92,0.7c-1.94,0.39-3.86,0.97-5.63,1.85c-0.22,0.11-0.44,0.22-0.66,0.34c-0.22,0.11-0.43,0.25-0.64,0.37
		c-0.21,0.13-0.43,0.25-0.63,0.39c-0.2,0.14-0.4,0.28-0.6,0.42c-0.41,0.28-0.78,0.59-1.13,0.87c-0.35,0.29-0.68,0.56-1.01,0.8
		c-0.65,0.48-1.27,0.81-1.9,0.92c-0.64,0.11-1.39,0.03-2.19-0.13c-0.8-0.16-1.67-0.38-2.61-0.48l-0.36-0.03
		c-0.12-0.01-0.23-0.01-0.35-0.01c-0.23,0-0.47-0.01-0.7-0.01c-0.23,0-0.46,0.03-0.69,0.05c-0.23,0.02-0.46,0.03-0.68,0.08
		c-1.8,0.28-3.44,0.93-4.9,1.69c-1.47,0.76-2.8,1.6-4.09,2.38c-1.29,0.78-2.54,1.51-3.81,2.07c-1.26,0.56-2.55,0.97-3.84,1.22
		c-1.29,0.25-2.56,0.37-3.8,0.38c-1.24-0.01-2.43-0.12-3.57-0.32c-0.56-0.13-1.12-0.22-1.65-0.38c-0.27-0.08-0.54-0.14-0.79-0.23
		c-0.26-0.09-0.51-0.18-0.76-0.26l-0.19-0.06l-0.05-0.02l-0.06-0.03l-0.12-0.05c-0.16-0.07-0.32-0.14-0.48-0.22
		c-0.02-0.01-0.03-0.02-0.05-0.02c-0.78-0.37-2.37-1.27-3.2-2.15c0,0,0.08,1.78,0.76,3.37c0.24,0.55,0.55,1.08,0.86,1.56
		c0.07,0.11,0.15,0.22,0.22,0.32c0.07,0.1,0.14,0.19,0.21,0.29c0.14,0.19,0.29,0.36,0.44,0.54c1.2,1.36,2.52,2.18,3.61,2.73
		c0.17,0.08,0.33,0.15,0.49,0.22c0,0-13.31,12.75-11.63,26.59c0,0,0.24-2.65,3.5-6.97c0,0.02-0.01,0.04-0.01,0.07l-0.14,0.85
		l-0.1,0.86l-0.1,0.86C5.04,45.24,5,45.52,4.98,45.81l-0.11,1.72c-0.01,0.14-0.02,0.29-0.02,0.43L4.85,48.4l-0.01,0.88l-0.01,0.88
		c0,0.15,0,0.29,0.01,0.42L4.86,51l0.07,1.7l0.16,1.71c0.03,0.29,0.05,0.57,0.09,0.85l0.12,0.85l0.12,0.85l0.06,0.42
		c0.02,0.14,0.05,0.28,0.08,0.42L5.9,59.5c0.11,0.56,0.27,1.11,0.41,1.67L6.52,62l0.25,0.82l0.25,0.82
		c0.09,0.27,0.16,0.55,0.26,0.81l0.58,1.61c0.09,0.27,0.2,0.53,0.31,0.79l0.33,0.79l0.33,0.78c0.12,0.26,0.24,0.51,0.37,0.77
		c0.25,0.51,0.49,1.02,0.75,1.52c0.27,0.5,0.54,0.99,0.81,1.49c0.07,0.12,0.13,0.25,0.21,0.37l0.22,0.36l0.44,0.72l0.44,0.72
		c0.15,0.24,0.31,0.47,0.47,0.7c0.32,0.46,0.62,0.93,0.96,1.38c0.34,0.45,0.68,0.89,1.01,1.34c0.16,0.23,0.34,0.44,0.52,0.65
		l0.54,0.64l0.54,0.64c0.18,0.21,0.38,0.41,0.56,0.61c0.38,0.41,0.74,0.82,1.13,1.21c0.39,0.39,0.79,0.78,1.18,1.16
		c0.19,0.2,0.4,0.38,0.6,0.56l0.61,0.55l0.61,0.55c0.21,0.18,0.42,0.35,0.64,0.52c0.43,0.34,0.84,0.7,1.28,1.03
		c0.44,0.32,0.86,0.67,1.31,0.97c17.13,11.27,43.84,4.54,43.84,4.54c-12.95,1.09-21.77,0.79-27.71,0.02c0,0-0.01,0-0.01,0
		c-17.89-1.56-23.42-14.29-23.42-14.29c-0.16-0.23-0.32-0.46-0.47-0.7l-0.44-0.72l-0.44-0.72l-0.22-0.36
		c-0.07-0.12-0.14-0.25-0.21-0.37c-0.27-0.5-0.54-0.99-0.81-1.49c-0.26-0.5-0.5-1.02-0.75-1.52c-0.12-0.26-0.25-0.51-0.37-0.77
		l-0.33-0.78l-0.33-0.79c-0.11-0.26-0.22-0.52-0.31-0.79l-0.58-1.61c-0.1-0.27-0.18-0.54-0.26-0.81l-0.25-0.82l-0.25-0.82
		l-0.21-0.83c-0.14-0.55-0.29-1.11-0.41-1.67l-0.33-1.68c-0.03-0.14-0.06-0.28-0.08-0.42l-0.06-0.42L9.5,58.21l-0.12-0.85
		c-0.04-0.28-0.06-0.57-0.09-0.85L9.13,54.8l-0.07-1.7l-0.02-0.41c-0.01-0.14-0.01-0.27-0.01-0.42l0.01-0.88l0.01-0.88l0.01-0.44
		c0-0.15,0.02-0.29,0.02-0.43l0.11-1.72c0.01-0.29,0.05-0.57,0.08-0.86l0.04-0.36l0.04-0.47c0.02-0.26,0.06-0.52,0.1-0.78l0.11-0.77
		l0.11-0.77l0.15-0.77l0.15-0.77c0.05-0.25,0.09-0.51,0.15-0.76l0.36-1.51c0.05-0.25,0.13-0.5,0.2-0.75l0.22-0.75l0.22-0.75
		c0.08-0.25,0.17-0.49,0.25-0.73c0.17-0.49,0.33-0.98,0.51-1.46c0.19-0.48,0.38-0.96,0.58-1.44c0.09-0.24,0.2-0.48,0.31-0.71
		l0.32-0.7l0.32-0.7c0.11-0.23,0.23-0.46,0.35-0.69c0,0-2.42,0.58-4.11,1.95c0,0,3.21-6.73,10.7-11.18c0,0-4.35-0.23-7.59-4.39l0,0
		c0.44,0.13,0.9,0.24,1.37,0.37c1.19,0.26,2.44,0.44,3.76,0.5c1.31,0.04,2.68-0.02,4.07-0.24c1.39-0.21,2.81-0.6,4.2-1.15
		c1.4-0.55,2.74-1.27,4.07-2.02c1.33-0.75,2.67-1.52,4.06-2.18c1.38-0.67,2.84-1.17,4.34-1.36c0.19-0.04,0.37-0.03,0.56-0.05
		c0.19-0.01,0.38-0.03,0.56-0.02c0.19,0.01,0.38,0.02,0.57,0.02c0.09,0,0.19,0,0.28,0.01l0.27,0.03c0.74,0.1,1.53,0.32,2.42,0.53
		c0.44,0.1,0.91,0.19,1.41,0.24c0.5,0.05,1.03,0.06,1.58-0.02c0.55-0.08,1.09-0.25,1.58-0.48c0.49-0.23,0.92-0.5,1.33-0.78
		c0.81-0.56,1.48-1.16,2.17-1.61c0.17-0.12,0.35-0.23,0.52-0.35c0.18-0.12,0.37-0.21,0.55-0.32c0.19-0.1,0.36-0.22,0.56-0.31
		c0.19-0.09,0.39-0.19,0.58-0.28c1.55-0.74,3.27-1.22,5.05-1.55c1.79-0.33,3.65-0.49,5.56-0.56c0.48-0.02,0.96-0.04,1.44-0.04
		c0.24,0,0.48-0.01,0.73-0.01l0.32,0l0.02,0l0.06,0.01c-0.01,0.02-0.02,0.05-0.03,0.06l-0.01,0.01l0,0.01l0,0l-0.01,0.02L66.6,6.42
		c-0.04,0.1-0.08,0.21-0.12,0.31l-0.14,0.31c-0.09,0.21-0.18,0.41-0.3,0.61c-0.11,0.2-0.2,0.41-0.33,0.6
		c-0.46,0.79-1.01,1.52-1.63,2.2c-0.62,0.67-1.32,1.28-2.08,1.81l-0.29,0.19l-0.14,0.1l-0.15,0.09l-0.26,0.15
		c-0.11,0.06-0.21,0.13-0.33,0.19l-0.35,0.18l-0.18,0.09l-0.19,0.08c-1.02,0.44-2.04,0.88-3.06,1.32c0.84,0.55,1.69,1.11,2.54,1.67
		c0.21,0.14,0.43,0.28,0.65,0.42c0.22,0.15,0.44,0.28,0.65,0.44c0.24,0.18,0.49,0.36,0.73,0.54c0.19,0.15,0.4,0.29,0.59,0.45
		c0.19,0.16,0.38,0.32,0.57,0.48c0.19,0.16,0.38,0.32,0.58,0.48c0.19,0.16,0.37,0.34,0.56,0.5c0.3,0.28,0.61,0.55,0.91,0.83
		c0.29,0.29,0.58,0.58,0.88,0.86c0.15,0.14,0.29,0.28,0.44,0.43l0.42,0.45c0.28,0.3,0.56,0.59,0.85,0.89
		c1.1,1.22,2.19,2.44,3.23,3.7c2.1,2.51,4.1,5.07,6.15,7.55c0.26,0.31,0.51,0.62,0.77,0.93c0.26,0.31,0.52,0.61,0.78,0.92
		c0.51,0.61,1.04,1.21,1.57,1.81c0.27,0.31,0.49,0.56,0.73,0.85c0.23,0.28,0.45,0.57,0.66,0.87c0.42,0.59,0.8,1.2,1.12,1.81
		c0.31,0.61,0.56,1.24,0.67,1.79c0.04,0.27,0.07,0.52,0.04,0.72c-0.03,0.22-0.12,0.5-0.24,0.8c-0.25,0.62-0.6,1.35-0.87,2.15
		c-0.26,0.81-0.42,1.71-0.38,2.6c0,0.22,0.03,0.43,0.05,0.65l0.01,0.08l0,0.02c0,0.01,0,0.03,0,0.04c-0.01,0.03-0.01,0.06-0.03,0.09
		c-0.01,0.01-0.02,0.03-0.03,0.04c-0.01,0.01-0.01,0.01-0.02,0.02c-0.01,0.01-0.03,0.02-0.04,0.03c-0.12,0.1-0.36,0.2-0.62,0.28
		c-0.26,0.08-0.56,0.14-0.86,0.17c-0.61,0.07-1.26,0.07-1.89,0.02c-0.31-0.03-0.62-0.07-0.91-0.13c-0.07-0.01-0.14-0.03-0.21-0.05
		l-0.21-0.06l-0.21-0.06l-0.2-0.08c-1.08-0.41-2.04-1.21-2.91-2.13c-0.87-0.93-1.65-1.98-2.48-3.01c-0.83-1.03-1.69-2.07-2.74-2.96
		c-0.52-0.44-1.09-0.84-1.72-1.16c-0.62-0.32-1.29-0.55-1.96-0.67c-0.67-0.13-1.35-0.16-1.99-0.12c-0.65,0.03-1.26,0.13-1.86,0.25
		c-1.19,0.24-2.28,0.55-3.33,0.78c-1.05,0.23-2.06,0.34-3.07,0.33c-1-0.02-1.98-0.15-2.92-0.38c-0.93-0.23-1.81-0.56-2.63-0.95
		c-0.41-0.19-0.8-0.42-1.18-0.64c-0.18-0.12-0.37-0.24-0.55-0.36c-0.18-0.12-0.35-0.25-0.52-0.38c-0.09-0.06-0.17-0.13-0.26-0.19
		c-0.08-0.07-0.16-0.14-0.24-0.2c-0.16-0.14-0.32-0.27-0.47-0.41c-0.15-0.14-0.29-0.29-0.44-0.43c-0.15-0.14-0.27-0.3-0.41-0.44
		c-0.28-0.29-0.5-0.61-0.74-0.91c-0.11-0.16-0.21-0.32-0.32-0.47c-0.05-0.08-0.11-0.16-0.16-0.23c-0.05-0.08-0.09-0.16-0.14-0.24
		c-0.75-1.27-1.25-2.55-1.53-3.74c-0.28-1.19-0.39-2.28-0.39-3.23c0-0.24,0.01-0.46,0.02-0.68c0-0.22,0.02-0.43,0.05-0.63
		c0.02-0.2,0.03-0.39,0.06-0.57c0.03-0.18,0.06-0.35,0.08-0.51c0.04-0.32,0.13-0.6,0.18-0.84c0.05-0.24,0.12-0.44,0.16-0.6
		c0.1-0.32,0.15-0.49,0.15-0.49s-0.06,0.16-0.18,0.47c-0.06,0.16-0.14,0.35-0.2,0.59c-0.07,0.24-0.17,0.51-0.23,0.84
		c-0.04,0.16-0.07,0.33-0.12,0.51c-0.04,0.18-0.06,0.37-0.1,0.57c-0.03,0.2-0.07,0.41-0.08,0.63c-0.02,0.22-0.05,0.45-0.06,0.69
		c-0.06,0.96-0.01,2.09,0.22,3.33c0.2,1.11,0.57,2.3,1.16,3.52c-0.08,0.28-0.16,0.55-0.23,0.83c0,0.01-0.01,0.03-0.01,0.04
		c-0.07,0.27-0.13,0.54-0.19,0.81c-0.01,0.02-0.01,0.05-0.02,0.07c-0.06,0.27-0.11,0.53-0.15,0.8c-0.01,0.03-0.01,0.06-0.02,0.09
		c-0.04,0.26-0.08,0.53-0.12,0.8c0,0.03-0.01,0.07-0.01,0.1c-0.03,0.27-0.06,0.53-0.08,0.8c0,0.03-0.01,0.07-0.01,0.1
		c-0.02,0.27-0.04,0.54-0.05,0.81c0,0.03,0,0.06,0,0.09c-0.01,0.27-0.02,0.55-0.02,0.83c0,0.02,0,0.04,0,0.06
		c0,0.29,0.01,0.57,0.02,0.86c0.3,4.39,1.93,8.67,4.57,12.06c0.66,0.84,1.37,1.65,2.14,2.38c0.77,0.73,1.57,1.42,2.42,2.02
		c1.7,1.22,3.54,2.18,5.44,2.86l0.36,0.13l0.36,0.11c0.24,0.07,0.48,0.15,0.72,0.22c0.49,0.12,0.96,0.26,1.45,0.35
		c0.74,0.16,1.48,0.27,2.21,0.34c-0.02,0-0.03-0.01-0.05-0.01c-0.49-0.09-0.96-0.23-1.45-0.35c-0.24-0.07-0.48-0.15-0.72-0.22
		l-0.36-0.11l-0.36-0.13c-1.9-0.68-3.74-1.64-5.44-2.86c-0.85-0.61-1.65-1.29-2.42-2.02c-0.77-0.73-1.47-1.54-2.14-2.38
		c-1.52-1.94-2.7-4.17-3.49-6.54c-0.01-0.03-0.02-0.06-0.03-0.09c-0.33-0.94-0.56-1.92-0.75-2.89c-0.09-0.5-0.16-0.99-0.21-1.5
		c-0.04-0.34-0.07-0.69-0.1-1.03c-0.01-0.29-0.02-0.59-0.02-0.88l-0.01-0.32c0-0.13-0.02-0.27-0.01-0.39l0-0.36
		c0.01-0.24-0.01-0.48,0.01-0.73l0.04-0.75c0.02-0.25,0.05-0.5,0.08-0.74c0.01-0.04,0.01-0.09,0.02-0.13
		c0.03-0.24,0.06-0.49,0.1-0.73c0,0,0,0,0,0c0.03,0.03,0.05,0.06,0.08,0.09c0.14,0.16,0.26,0.34,0.41,0.49
		c0.15,0.16,0.3,0.32,0.44,0.48c0.15,0.16,0.32,0.31,0.48,0.46c0.08,0.08,0.16,0.15,0.25,0.23c0.09,0.07,0.17,0.14,0.26,0.22
		c0.18,0.14,0.35,0.3,0.54,0.43c0.19,0.14,0.38,0.27,0.57,0.41c0.4,0.25,0.8,0.52,1.23,0.74c0.86,0.46,1.79,0.86,2.79,1.16
		c1,0.29,2.07,0.48,3.17,0.55c1.1,0.07,2.27-0.01,3.39-0.22c1.12-0.2,2.23-0.47,3.33-0.64c1.1-0.18,2.2-0.24,3.23,0
		c1.03,0.23,1.98,0.78,2.83,1.55c0.86,0.77,1.62,1.74,2.39,2.77c0.77,1.03,1.54,2.14,2.49,3.21c0.47,0.54,0.99,1.06,1.59,1.54
		c0.6,0.48,1.27,0.91,2.02,1.22l0.28,0.12c0.1,0.03,0.19,0.07,0.29,0.1l0.29,0.09c0.1,0.03,0.2,0.05,0.3,0.08
		c0.39,0.09,0.78,0.16,1.17,0.21c0.78,0.09,1.56,0.11,2.37,0.04c0.41-0.04,0.82-0.1,1.25-0.22c0.22-0.06,0.43-0.13,0.66-0.23
		c0.11-0.04,0.23-0.11,0.34-0.16c0.12-0.07,0.23-0.13,0.35-0.21c0.06-0.04,0.11-0.08,0.17-0.13c0.06-0.05,0.12-0.11,0.18-0.16
		c0.06-0.05,0.11-0.12,0.17-0.18c0.06-0.06,0.11-0.13,0.15-0.19c0.2-0.27,0.34-0.58,0.41-0.9c0.04-0.16,0.05-0.33,0.06-0.5
		c0-0.08,0-0.17-0.01-0.25l-0.01-0.19c-0.01-0.15-0.03-0.31-0.03-0.45c-0.01-0.58,0.1-1.16,0.3-1.76c0.21-0.6,0.53-1.22,0.86-1.99
		c0.16-0.39,0.33-0.83,0.42-1.36c0.02-0.13,0.04-0.27,0.05-0.41l0-0.4C85.64,43.49,85.62,43.38,85.61,43.25z"/>
</g>
</svg>
